<svg width="1509" height="184" viewBox="0 0 1509 184" fill="none" xmlns="http://www.w3.org/2000/svg">
<rect width="1508.23" height="184" rx="12" fill="#2234D1"/>
<mask id="mask0_185_3942" style="mask-type:alpha" maskUnits="userSpaceOnUse" x="0" y="0" width="1509" height="184">
<rect width="1508.23" height="184" rx="12" fill="#663259"/>
</mask>
<g mask="url(#mask0_185_3942)">
<path d="M1281.47 96.7178C1281.47 90.8731 1276.73 86.1349 1270.89 86.1349C1265.04 86.1349 1260.3 90.8731 1260.3 96.7178C1260.3 102.562 1265.04 107.301 1270.89 107.301C1274.39 107.301 1277.24 110.144 1277.24 113.65C1277.24 117.157 1274.39 120 1270.89 120C1258.02 120 1247.6 109.576 1247.6 96.7178C1247.6 83.8592 1258.02 73.4355 1270.89 73.4355C1283.75 73.4355 1294.17 83.8592 1294.17 96.7178C1294.17 100.224 1291.33 103.067 1287.82 103.067C1284.31 103.067 1281.47 100.224 1281.47 96.7178Z" fill="#E53855"/>
<path fill-rule="evenodd" clip-rule="evenodd" d="M1333.18 191.834C1327.34 191.834 1322.6 196.573 1322.6 202.417C1322.6 208.262 1327.34 213 1333.18 213C1339.03 213 1343.77 208.262 1343.77 202.417C1343.77 196.573 1339.03 191.834 1333.18 191.834ZM1265.18 42.8344C1259.34 42.8344 1254.6 47.5725 1254.6 53.4172C1254.6 59.2623 1259.34 64 1265.18 64C1271.03 64 1275.77 59.2623 1275.77 53.4172C1275.77 47.5725 1271.03 42.8344 1265.18 42.8344Z" fill="#FFC735"/>
<path d="M1311.59 31.2224C1305.74 31.2224 1301 26.4843 1301 20.6396C1301 14.7949 1305.74 10.0567 1311.59 10.0567C1317.43 10.0567 1322.17 14.7949 1322.17 20.6396C1322.17 24.1463 1325.02 26.9893 1328.52 26.9893C1332.03 26.9893 1334.87 24.1463 1334.87 20.6396C1334.87 7.78097 1324.45 -2.64273 1311.59 -2.64273C1298.72 -2.64273 1288.3 7.78097 1288.3 20.6396C1288.3 33.4982 1298.72 43.9219 1311.59 43.9219C1315.09 43.9219 1317.94 41.0789 1317.94 37.5722C1317.94 34.0654 1315.09 31.2224 1311.59 31.2224Z" fill="#4454AB"/>
<path fill-rule="evenodd" clip-rule="evenodd" d="M1257.05 -47.522C1269.9 -47.522 1280.32 -37.0968 1280.32 -24.2364V18.1011C1280.32 30.9615 1269.9 41.3867 1257.05 41.3867C1244.19 41.3867 1233.77 30.9615 1233.77 18.1011V4.55311H1220.44C1207.59 4.55311 1197.17 -5.87207 1197.17 -18.7325V-61.07C1197.17 -66.9168 1192.43 -71.6543 1186.59 -71.6543H1167.12C1161.28 -71.6543 1156.55 -66.9168 1156.55 -61.07C1156.55 -57.5644 1153.7 -54.7194 1150.2 -54.7194C1146.69 -54.7194 1143.85 -57.5644 1143.85 -61.07C1143.85 -73.9321 1154.27 -84.3556 1167.12 -84.3556H1186.59C1193.26 -84.3556 1199.27 -81.5486 1203.52 -77.0524C1207.76 -81.5486 1213.77 -84.3556 1220.44 -84.3556H1239.49C1242.99 -84.3556 1245.83 -81.5105 1245.83 -78.005C1245.83 -74.4994 1242.99 -71.6543 1239.49 -71.6543H1220.44C1214.6 -71.6543 1209.86 -66.9168 1209.86 -61.07V-18.7325C1209.86 -12.887 1214.6 -8.14813 1220.44 -8.14813H1233.77V-24.2364C1233.77 -37.0968 1244.19 -47.522 1257.05 -47.522ZM1246.47 18.1012C1246.47 23.9467 1251.21 28.6855 1257.05 28.6855C1262.89 28.6855 1267.63 23.9467 1267.63 18.1012V-24.2363C1267.63 -30.0818 1262.89 -34.8206 1257.05 -34.8206C1251.21 -34.8206 1246.47 -30.0818 1246.47 -24.2363V18.1012Z" fill="#8950FC"/>
<path fill-rule="evenodd" clip-rule="evenodd" d="M1315.83 181.434C1315.83 162.734 1300.67 147.575 1281.96 147.575C1278.45 147.575 1275.61 144.732 1275.61 141.226C1275.61 137.72 1278.45 134.877 1281.96 134.877C1307.68 134.877 1328.53 155.722 1328.53 181.434C1328.53 184.941 1325.69 187.783 1322.18 187.783C1318.67 187.783 1315.83 184.941 1315.83 181.434Z" fill="#4454AB"/>
<path fill-rule="evenodd" clip-rule="evenodd" d="M1328.89 43.1973C1332.4 43.1973 1335.24 40.358 1335.24 36.8558C1335.24 33.3536 1332.4 30.5143 1328.89 30.5143C1325.39 30.5143 1322.55 33.3536 1322.55 36.8558C1322.55 40.358 1325.39 43.1973 1328.89 43.1973Z" fill="#FD6234"/>
<path fill-rule="evenodd" clip-rule="evenodd" d="M1328.89 60.0469C1332.4 60.0469 1335.24 57.2076 1335.24 53.7054C1335.24 50.2032 1332.4 47.3639 1328.89 47.3639C1325.39 47.3639 1322.55 50.2032 1322.55 53.7054C1322.55 57.2076 1325.39 60.0469 1328.89 60.0469Z" fill="#FD6234"/>
<path fill-rule="evenodd" clip-rule="evenodd" d="M1444.54 -7.62419C1444.54 -1.77949 1449.28 2.95865 1455.13 2.95865C1460.97 2.95865 1465.71 -1.77949 1465.71 -7.62419C1465.71 -13.4689 1460.97 -18.207 1455.13 -18.207C1449.28 -18.207 1444.54 -13.4689 1444.54 -7.62419ZM1455.13 15.6582C1442.26 15.6582 1431.84 5.2345 1431.84 -7.6241C1431.84 -20.4827 1442.26 -30.9064 1455.13 -30.9064C1467.99 -30.9064 1478.41 -20.4827 1478.41 -7.6241C1478.41 5.2345 1467.99 15.6582 1455.13 15.6582Z" fill="#FFC735"/>
<path d="M1414.08 119.292C1414.08 115.788 1416.92 112.948 1420.44 112.948C1426.29 112.948 1431.03 108.213 1431.03 102.373V60.0758C1431.03 54.2358 1426.29 49.5015 1420.44 49.5015C1416.92 49.5015 1414.08 46.6608 1414.08 43.1569C1414.08 39.653 1416.92 36.8123 1420.44 36.8123C1428.24 36.8123 1435.15 40.6381 1439.38 46.5123C1444.85 45.0218 1448.84 39.9998 1448.84 33.8515V9.31903C1448.84 5.81512 1451.69 2.97443 1455.2 2.97443C1458.71 2.97443 1461.56 5.81512 1461.56 9.31903V33.8515C1461.56 45.3272 1454.19 55.1842 1443.7 58.48C1443.74 59.0074 1443.75 59.5395 1443.75 60.0758V102.373C1443.75 115.221 1433.31 125.637 1420.44 125.637C1416.92 125.637 1414.08 122.796 1414.08 119.292Z" fill="#E5E0D5"/>
<path fill-rule="evenodd" clip-rule="evenodd" d="M1338.32 171.386C1338.32 158.527 1348.73 148.103 1361.58 148.103H1403.87C1416.71 148.103 1427.12 158.527 1427.12 171.386C1427.12 184.244 1416.71 194.668 1403.87 194.668H1361.58C1348.73 194.668 1338.32 184.244 1338.32 171.386ZM1361.58 160.803C1355.74 160.803 1351.01 165.541 1351.01 171.386C1351.01 177.23 1355.74 181.969 1361.58 181.969H1403.87C1409.7 181.969 1414.44 177.23 1414.44 171.386C1414.44 165.541 1409.7 160.803 1403.87 160.803H1361.58Z" fill="#4454AB"/>
<path fill-rule="evenodd" clip-rule="evenodd" d="M1426.76 119.295C1426.76 115.793 1423.92 112.954 1420.41 112.954C1414.56 112.954 1409.82 108.222 1409.82 102.385V102.385V60.1082C1409.82 54.2711 1414.56 49.5391 1420.41 49.5391C1423.92 49.5391 1426.76 46.6998 1426.76 43.1976C1426.76 39.6954 1423.92 36.8561 1420.41 36.8561C1413.74 36.8561 1407.72 39.6586 1403.47 44.1492C1399.22 39.6586 1393.2 36.8561 1386.53 36.8561H1367.05C1354.18 36.8561 1343.76 47.2663 1343.76 60.1082C1343.76 63.6104 1346.6 66.4496 1350.11 66.4496C1353.62 66.4496 1356.46 63.6104 1356.46 60.1082C1356.46 54.2711 1361.2 49.5391 1367.05 49.5391H1386.53C1392.38 49.5391 1397.12 54.2711 1397.12 60.1082V102.384C1397.12 102.385 1397.12 102.384 1397.12 102.384C1397.12 115.226 1407.55 125.637 1420.41 125.637C1423.92 125.637 1426.76 122.797 1426.76 119.295Z" fill="#4454AB"/>
<path fill-rule="evenodd" clip-rule="evenodd" d="M1420.33 36.8396C1426.17 36.8396 1430.91 32.1015 1430.91 26.2568C1430.91 20.4121 1426.17 15.6739 1420.33 15.6739C1414.48 15.6739 1409.74 20.4121 1409.74 26.2568C1409.74 29.7635 1406.9 32.6065 1403.39 32.6065C1399.88 32.6065 1397.04 29.7635 1397.04 26.2568C1397.04 13.3982 1407.47 2.97445 1420.33 2.97445C1433.19 2.97445 1443.62 13.3982 1443.62 26.2568C1443.62 39.1154 1433.19 49.5391 1420.33 49.5391C1416.82 49.5391 1413.98 46.6961 1413.98 43.1893C1413.98 39.6826 1416.82 36.8396 1420.33 36.8396Z" fill="#463C74"/>
<path fill-rule="evenodd" clip-rule="evenodd" d="M1368.31 90.8654C1362.47 90.8654 1357.73 95.6035 1357.73 101.448C1357.73 107.293 1362.47 112.031 1368.31 112.031C1374.16 112.031 1378.9 107.293 1378.9 101.448C1378.9 97.9415 1381.74 95.0985 1385.25 95.0985C1388.76 95.0985 1391.6 97.9415 1391.6 101.448C1391.6 114.307 1381.18 124.73 1368.31 124.73C1355.45 124.73 1345.02 114.307 1345.02 101.448C1345.02 88.5896 1355.45 78.166 1368.31 78.166C1371.82 78.166 1374.66 81.0089 1374.66 84.5157C1374.66 88.0224 1371.82 90.8654 1368.31 90.8654Z" fill="#E53855"/>
<path fill-rule="evenodd" clip-rule="evenodd" d="M1402.64 177.637C1394.83 177.637 1388.55 183.912 1388.55 191.588C1388.55 199.265 1394.83 205.54 1402.64 205.54C1406.95 205.54 1410.8 203.628 1413.39 200.602C1415.67 197.938 1419.68 197.621 1422.36 199.895C1425.03 202.168 1425.35 206.171 1423.07 208.835C1418.15 214.573 1410.82 218.223 1402.64 218.223C1387.86 218.223 1375.83 206.326 1375.83 191.588C1375.83 176.851 1387.86 164.954 1402.64 164.954C1406.15 164.954 1409 167.794 1409 171.296C1409 174.798 1406.15 177.637 1402.64 177.637Z" fill="#FD6234"/>
<path fill-rule="evenodd" clip-rule="evenodd" d="M1420.24 36.8561C1423.74 36.8561 1426.58 39.6954 1426.58 43.1976C1426.58 46.6998 1423.74 49.5391 1420.24 49.5391C1416.73 49.5391 1413.89 46.6998 1413.89 43.1976C1413.89 39.6954 1416.73 36.8561 1420.24 36.8561Z" fill="#FD6234"/>
<path fill-rule="evenodd" clip-rule="evenodd" d="M1420.42 112.954C1423.92 112.954 1426.76 115.793 1426.76 119.295C1426.76 122.797 1423.92 125.637 1420.42 125.637C1416.92 125.637 1414.08 122.797 1414.08 119.295C1414.08 115.793 1416.92 112.954 1420.42 112.954Z" fill="#FD6234"/>
<path fill-rule="evenodd" clip-rule="evenodd" d="M1455.22 2.97525C1458.72 2.97525 1461.56 5.81454 1461.56 9.31673C1461.56 12.8189 1458.72 15.6582 1455.22 15.6582C1451.71 15.6582 1448.87 12.8189 1448.87 9.31673C1448.87 5.81454 1451.71 2.97525 1455.22 2.97525Z" fill="#FD6234"/>
<path fill-rule="evenodd" clip-rule="evenodd" d="M1426.78 72.7173C1426.78 78.5425 1431.52 83.2648 1437.36 83.2648C1443.21 83.2648 1447.95 78.5425 1447.95 72.7173C1447.95 69.2223 1450.79 66.3888 1454.3 66.3888C1457.81 66.3888 1460.65 69.2223 1460.65 72.7173C1460.65 85.533 1450.23 95.9219 1437.36 95.9219C1424.5 95.9219 1414.08 85.533 1414.08 72.7173C1414.08 69.2223 1416.92 66.3888 1420.43 66.3888C1423.93 66.3888 1426.78 69.2223 1426.78 72.7173Z" fill="#FFC735"/>
<path fill-rule="evenodd" clip-rule="evenodd" d="M1313.31 59.6978C1313.31 67.7662 1320 74.521 1328.53 74.521C1337.06 74.521 1343.76 67.7662 1343.76 59.6978C1343.76 56.1893 1346.6 53.345 1350.1 53.345C1353.6 53.345 1356.44 56.1893 1356.44 59.6978C1356.44 75.0194 1343.83 87.2266 1328.53 87.2266C1313.24 87.2266 1300.62 75.0194 1300.62 59.6978C1300.62 56.1893 1303.46 53.345 1306.96 53.345C1310.47 53.345 1313.31 56.1893 1313.31 59.6978Z" fill="#FFB017"/>
<path fill-rule="evenodd" clip-rule="evenodd" d="M1391.63 101.543C1391.63 117.665 1404.71 130.735 1420.86 130.735C1433.73 130.735 1444.16 141.153 1444.16 154.004C1444.16 166.856 1433.73 177.273 1420.86 177.273C1417.35 177.273 1414.5 174.432 1414.5 170.927C1414.5 167.423 1417.35 164.581 1420.86 164.581C1426.71 164.581 1431.45 159.846 1431.45 154.004C1431.45 148.163 1426.71 143.427 1420.86 143.427C1397.69 143.427 1378.92 124.675 1378.92 101.543C1378.92 98.038 1381.76 95.1966 1385.27 95.1966C1388.78 95.1966 1391.63 98.038 1391.63 101.543Z" fill="#FFB017"/>
<path d="M1338.32 170.028C1338.32 143.41 1316.73 121.832 1290.11 121.832C1286.61 121.832 1283.77 118.993 1283.77 115.491C1283.77 111.989 1286.61 109.15 1290.11 109.15C1323.74 109.15 1351 136.406 1351 170.028C1351 173.53 1348.16 176.369 1344.66 176.369C1341.16 176.369 1338.32 173.53 1338.32 170.028Z" fill="#8950FC"/>
<path d="M1125.39 -16.9437C1125.39 5.75024 1143.79 24.147 1166.49 24.147C1170 24.147 1172.85 26.992 1172.85 30.5012C1172.85 34.0105 1170 36.8555 1166.49 36.8555C1136.77 36.8555 1112.68 12.7687 1112.68 -16.9437C1112.68 -20.4529 1115.52 -23.2979 1119.03 -23.2979C1122.54 -23.2979 1125.39 -20.4529 1125.39 -16.9437Z" fill="#E53855"/>
<path fill-rule="evenodd" clip-rule="evenodd" d="M1415.71 -5.90289C1399.59 -5.90289 1386.53 7.15717 1386.53 23.2679C1386.53 26.7701 1383.69 29.6094 1380.18 29.6094C1376.68 29.6094 1373.84 26.7701 1373.84 23.2679C1373.84 0.152796 1392.58 -18.5858 1415.71 -18.5858C1419.21 -18.5858 1422.05 -15.7466 1422.05 -12.2444C1422.05 -8.74218 1419.21 -5.90289 1415.71 -5.90289Z" fill="#FD6234"/>
<path fill-rule="evenodd" clip-rule="evenodd" d="M1420.42 66.3894C1423.92 66.3894 1426.76 69.2287 1426.76 72.7308C1426.76 76.233 1423.92 79.0723 1420.42 79.0723C1416.92 79.0723 1414.08 76.233 1414.08 72.7308C1414.08 69.2287 1416.92 66.3894 1420.42 66.3894Z" fill="#FD6234"/>
<path fill-rule="evenodd" clip-rule="evenodd" d="M1385.26 95.0163C1388.76 95.0163 1391.6 97.8556 1391.6 101.358C1391.6 104.86 1388.76 107.699 1385.26 107.699C1381.76 107.699 1378.92 104.86 1378.92 101.358C1378.92 97.8556 1381.76 95.0163 1385.26 95.0163Z" fill="#FD6234"/>
<path fill-rule="evenodd" clip-rule="evenodd" d="M1323.94 96.317C1327.44 96.317 1330.28 99.1563 1330.28 102.659C1330.28 106.161 1327.44 109 1323.94 109C1320.44 109 1317.6 106.161 1317.6 102.659C1317.6 99.1563 1320.44 96.317 1323.94 96.317Z" fill="#FD6234"/>
<path fill-rule="evenodd" clip-rule="evenodd" d="M1350.1 53.3445C1353.6 53.3445 1356.44 56.1838 1356.44 59.6859C1356.44 63.1881 1353.6 66.0273 1350.1 66.0273C1346.6 66.0273 1343.76 63.1881 1343.76 59.6859C1343.76 56.1838 1346.6 53.3445 1350.1 53.3445Z" fill="#FD6234"/>
<path fill-rule="evenodd" clip-rule="evenodd" d="M1379.94 61.3171C1383.44 61.3171 1386.28 64.1564 1386.28 67.6585C1386.28 71.1607 1383.44 74 1379.94 74C1376.44 74 1373.6 71.1607 1373.6 67.6585C1373.6 64.1564 1376.44 61.3171 1379.94 61.3171Z" fill="#4454AB"/>
<path fill-rule="evenodd" clip-rule="evenodd" d="M1344.66 164.954C1348.16 164.954 1351 167.793 1351 171.295C1351 174.797 1348.16 177.637 1344.66 177.637C1341.16 177.637 1338.32 174.797 1338.32 171.295C1338.32 167.793 1341.16 164.954 1344.66 164.954Z" fill="#FD6234"/>
<path fill-rule="evenodd" clip-rule="evenodd" d="M1420.78 164.591C1424.28 164.591 1427.12 167.43 1427.12 170.932C1427.12 174.434 1424.28 177.273 1420.78 177.273C1417.28 177.273 1414.44 174.434 1414.44 170.932C1414.44 167.43 1417.28 164.591 1420.78 164.591Z" fill="#FD6234"/>
<path fill-rule="evenodd" clip-rule="evenodd" d="M1477.51 183.979C1477.51 187.481 1474.67 190.32 1471.18 190.32H1453.03C1449.53 190.32 1446.7 187.481 1446.7 183.979C1446.7 180.477 1449.53 177.637 1453.03 177.637H1471.18C1474.67 177.637 1477.51 180.477 1477.51 183.979Z" fill="#B4D51E"/>
<path fill-rule="evenodd" clip-rule="evenodd" d="M1472.43 153.539C1468.93 153.539 1466.09 150.697 1466.09 147.192V96.8343C1466.09 93.3287 1468.93 90.4867 1472.43 90.4867C1475.94 90.4867 1478.78 93.3287 1478.78 96.8343L1478.78 147.192C1478.78 150.697 1475.94 153.539 1472.43 153.539Z" fill="#FFC735"/>
<path fill-rule="evenodd" clip-rule="evenodd" d="M1478.78 95.1976C1478.78 98.6998 1475.94 101.539 1472.43 101.539C1468.93 101.539 1466.09 98.6998 1466.09 95.1976C1466.09 91.6954 1468.93 88.8561 1472.43 88.8561C1475.94 88.8561 1478.78 91.6954 1478.78 95.1976Z" fill="#FD6234"/>
<path fill-rule="evenodd" clip-rule="evenodd" d="M1353.9 18.1937C1353.9 -4.22089 1335.73 -22.3918 1313.31 -22.3918C1309.8 -22.3918 1306.96 -25.231 1306.96 -28.7332C1306.96 -32.2354 1309.8 -35.0747 1313.31 -35.0747C1342.74 -35.0747 1366.59 -11.2257 1366.59 18.1937C1366.59 21.6959 1363.75 24.5352 1360.25 24.5352C1356.74 24.5352 1353.9 21.6959 1353.9 18.1937Z" fill="#B4D51E"/>
<path fill-rule="evenodd" clip-rule="evenodd" d="M1166.41 -27.4491C1160.57 -27.4491 1155.83 -22.7109 1155.83 -16.8662C1155.83 -11.0215 1160.57 -6.28339 1166.41 -6.28339C1172.26 -6.28339 1177 -11.0215 1177 -16.8662C1177 -20.373 1179.84 -23.2159 1183.35 -23.2159C1186.86 -23.2159 1189.7 -20.373 1189.7 -16.8662C1189.7 -4.00765 1179.28 6.41602 1166.41 6.41602C1153.55 6.41602 1143.13 -4.00765 1143.13 -16.8662C1143.13 -29.7248 1153.55 -40.1485 1166.41 -40.1485C1169.92 -40.1485 1172.77 -37.3038 1172.77 -33.7988C1172.77 -30.292 1169.92 -27.4491 1166.41 -27.4491Z" fill="#463C74"/>
<path fill-rule="evenodd" clip-rule="evenodd" d="M1245.6 72.6585C1245.6 69.1563 1242.76 66.3171 1239.25 66.3171C1233.4 66.3171 1228.66 61.5851 1228.66 55.7479V55.7479V13.4715C1228.66 7.63434 1233.4 2.90234 1239.25 2.90234C1242.76 2.90234 1245.6 0.0630509 1245.6 -3.43913C1245.6 -6.94132 1242.76 -9.78061 1239.25 -9.78061C1232.58 -9.78061 1226.56 -6.9781 1222.31 -2.48749C1218.06 -6.9781 1212.04 -9.78061 1205.37 -9.78061H1185.89C1173.02 -9.78061 1162.6 0.629551 1162.6 13.4715C1162.6 16.9736 1165.44 19.8129 1168.95 19.8129C1172.46 19.8129 1175.3 16.9736 1175.3 13.4715C1175.3 7.63434 1180.04 2.90234 1185.89 2.90234H1205.37C1211.22 2.90234 1215.96 7.63434 1215.96 13.4715V55.7475C1215.96 55.7479 1215.96 55.7475 1215.96 55.7475C1215.96 68.5894 1226.39 79 1239.25 79C1242.76 79 1245.6 76.1607 1245.6 72.6585Z" fill="#4454AB"/>
<path fill-rule="evenodd" clip-rule="evenodd" d="M1237.48 16.0004C1230.14 16.0004 1224.18 20.7385 1224.18 26.5832C1224.18 32.4283 1230.14 37.166 1237.48 37.166C1244.83 37.166 1250.79 32.4283 1250.79 26.5832C1250.79 20.7385 1244.83 16.0004 1237.48 16.0004Z" fill="#E5E0D5"/>
</g>
</svg>
