<svg width="16" height="17" viewBox="0 0 16 17" fill="none" xmlns="http://www.w3.org/2000/svg">
<g id="more_vert_24px">
<path id="icon/navigation/more_vert_24px" fill-rule="evenodd" clip-rule="evenodd" d="M8.00033 6.3151C8.73366 6.3151 9.33366 5.7151 9.33366 4.98177C9.33366 4.24844 8.73366 3.64844 8.00033 3.64844C7.26699 3.64844 6.66699 4.24844 6.66699 4.98177C6.66699 5.7151 7.26699 6.3151 8.00033 6.3151ZM8.00033 7.64844C7.26699 7.64844 6.66699 8.24844 6.66699 8.98177C6.66699 9.7151 7.26699 10.3151 8.00033 10.3151C8.73366 10.3151 9.33366 9.7151 9.33366 8.98177C9.33366 8.24844 8.73366 7.64844 8.00033 7.64844ZM6.66699 12.9818C6.66699 12.2484 7.26699 11.6484 8.00033 11.6484C8.73366 11.6484 9.33366 12.2484 9.33366 12.9818C9.33366 13.7151 8.73366 14.3151 8.00033 14.3151C7.26699 14.3151 6.66699 13.7151 6.66699 12.9818Z" fill="#1B1B1B" fill-opacity="0.6"/>
</g>
</svg>
